<svg width="18" height="18" viewBox="0 0 18 18" fill="none" xmlns="http://www.w3.org/2000/svg">
<path d="M8.25 14.25C7.06331 14.25 5.90328 13.8981 4.91658 13.2388C3.92989 12.5795 3.16085 11.6425 2.70673 10.5461C2.2526 9.44975 2.13378 8.24335 2.36529 7.07946C2.5968 5.91558 3.16825 4.84648 4.00736 4.00736C4.84648 3.16825 5.91558 2.5968 7.07946 2.36529C8.24335 2.13378 9.44975 2.2526 10.5461 2.70673C11.6425 3.16085 12.5795 3.92989 13.2388 4.91658C13.8981 5.90328 14.25 7.06331 14.25 8.25C14.2482 9.84075 13.6155 11.3658 12.4907 12.4907C11.3658 13.6155 9.84075 14.2482 8.25 14.25ZM8.25 3.75C7.35999 3.75 6.48996 4.01392 5.74994 4.50839C5.00992 5.00286 4.43314 5.70566 4.09254 6.52793C3.75195 7.35019 3.66284 8.25499 3.83647 9.12791C4.0101 10.0008 4.43869 10.8026 5.06802 11.432C5.69736 12.0613 6.49918 12.4899 7.3721 12.6635C8.24501 12.8372 9.14981 12.7481 9.97208 12.4075C10.7943 12.0669 11.4971 11.4901 11.9916 10.7501C12.4861 10.01 12.75 9.14002 12.75 8.25C12.7488 7.05689 12.2743 5.91299 11.4307 5.06934C10.587 4.22568 9.44311 3.75119 8.25 3.75Z" fill="#6995E7"/>
<path d="M14.9986 15.7486C14.7997 15.7486 14.609 15.6695 14.4683 15.5288L11.4683 12.5288C11.3317 12.3874 11.2561 12.1979 11.2578 12.0013C11.2595 11.8046 11.3384 11.6165 11.4775 11.4775C11.6165 11.3384 11.8046 11.2595 12.0013 11.2578C12.1979 11.2561 12.3874 11.3317 12.5288 11.4683L15.5288 14.4683C15.6337 14.5732 15.7051 14.7069 15.734 14.8523C15.763 14.9978 15.7481 15.1486 15.6914 15.2856C15.6346 15.4226 15.5385 15.5397 15.4152 15.6221C15.2919 15.7046 15.1469 15.7486 14.9986 15.7486Z" fill="#6995E7"/>
</svg>
